 http://alu5.rhzll.qjtv.e.s30.incloak.com/title/tt0036342/
Source: Shadow.of.a.Doubt.1943.720p.BluRay.X264-AMIABLE Thanks!
Subs: Arabic, Brazilian, Czech, Danish, Dutch, English, Finnish, French, Greek, Hebrew, Italian, Portuguese, Spanish.
Sample and Screens included.
General
Complete name : Shadow of a Doubt 1943 720p BRRip x264 MP4 AAC-CC.mp4
Format : MPEG-4
Format profile : Base Media
Codec ID : isom
File size : 2.47 GiB
Duration : 1h 47mn
Overall bit rate mode : Variable
Overall bit rate : 3 275 Kbps
Encoded date : UTC 2013-05-15 17:20:59
Tagged date : UTC 2013-05-15 17:20:59
Writing application : Yamb 2.1.0.0
Video
ID : 1
Format : AVC
Format/Info : Advanced Video Codec
Format profile : High@L4.1
Format settings, CABAC : Yes
Format settings, ReFrames : 5 frames
Codec ID : avc1
Codec ID/Info : Advanced Video Coding
Duration : 1h 47mn
Bit rate : 3 138 Kbps
Maximum bit rate : 18.7 Mbps
Width : 960 pixels
Height : 720 pixels
Display aspect ratio : 4:3
Frame rate mode : Variable
Frame rate : 23.976 fps
Minimum frame rate : 23.256 fps
Maximum frame rate : 25.000 fps
Color space : YUV
Chroma subsampling : 4:2:0
Bit depth : 8 bits
Scan type : Progressive
Bits/(Pixel*Frame) : 0.189
Stream size : 2.36 GiB (96%)
Writing library : x264 core 112
Encoding settings : cabac=1 / ref=5 / deblock=1:0:0 / analyse=0x3:0x113 / me=hex / subme=7 / psy=1 / psy_rd=1.00:0.00 / mixed_ref=1 / me_range=16 / chroma_me=1 / trellis=1 / 8x8dct=1 / cqm=0 / deadzone=21,11 / fast_pskip=1 / chroma_qp_offset=-2 / threads=3 / sliced_threads=0 / nr=0 / decimate=1 / interlaced=0 / constrained_intra=0 / bframes=5 / b_pyramid=2 / b_adapt=2 / b_bias=0 / direct=1 / weightb=1 / open_gop=0 / weightp=2 / keyint=240 / keyint_min=23 / scenecut=40 / intra_refresh=0 / rc_lookahead=50 / rc=abr / mbtree=1 / bitrate=3138 / ratetol=1.0 / qcomp=0.60 / qpmin=3 / qpmax=51 / qpstep=4 / ip_ratio=1.40 / aq=1:1.00
Encoded date : UTC 2013-05-15 05:19:10
Tagged date : UTC 2013-05-15 17:25:14
Color primaries : BT.709
Transfer characteristics : BT.709
Matrix coefficients : BT.709
Audio
ID : 2
Format : AAC
Format/Info : Advanced Audio Codec
Format profile : LC
Codec ID : 40
Duration : 1h 47mn
Bit rate mode : Variable
Bit rate : 136 Kbps
Maximum bit rate : 179 Kbps
Channel(s) : 2 channels
Channel positions : Front: L R
Sampling rate : 48.0 KHz
Compression mode : Lossy
Delay relative to video : 83ms
Stream size : 105 MiB (4%)
Language : English
Encoded date : UTC 2013-05-15 17:24:30
Tagged date : UTC 2013-05-15 17:25:14
Enjoy...
Requested by varuneric
Coming soon: La Haine, Chungking Express, Mallrats and more...